<svg t="1620798066957" class="icon" viewBox="0 0 1024 1024" version="1.1" xmlns="http://www.w3.org/2000/svg" p-id="5959" width="20" height="20"><path d="M490.252 861.445l20.157 20.08 20.207-20.032c8.684-8.608 213.303-211.879 267.368-304.443 29.597-50.669 45.242-108.629 45.242-167.613 0-88.886-34.615-172.451-97.465-235.302-62.85-62.853-146.417-97.467-235.303-97.467s-172.45 34.614-235.301 97.465c-62.852 62.852-97.466 146.417-97.466 235.302 0 60.614 16.464 119.959 47.612 171.614 54.364 90.147 256.374 291.852 264.949 300.396z m20.206-654.776c83.102 0 150.469 67.368 150.469 150.47s-67.367 150.469-150.47 150.469-150.47-67.367-150.47-150.469 67.37-150.47 150.47-150.47zM779.384 902.225h-535.89c-15.787 0-28.63 12.843-28.63 28.629 0 15.786 12.843 28.63 28.63 28.63h535.89c15.786 0 28.629-12.844 28.629-28.63s-12.843-28.63-28.63-28.63z" fill="rgb(163,163,163)
" p-id="5960"></path></svg>
