<?xml version="1.0" standalone="no"?><!DOCTYPE svg PUBLIC "-//W3C//DTD SVG 1.1//EN" "http://www.w3.org/Graphics/SVG/1.1/DTD/svg11.dtd"><svg t="1620911243777" class="icon" viewBox="0 0 1024 1024" version="1.1" xmlns="http://www.w3.org/2000/svg" p-id="9898" xmlns:xlink="http://www.w3.org/1999/xlink" width="30" height="30"><defs><style type="text/css"></style></defs><path d="M845.8 321.8C829.1 305.2 807 296 783.5 296s-45.6 9.2-62.2 25.8L693 350.1l-56.6-56.6 28.3-28.3c34.3-34.3 34.3-90.1 0-124.5-34.3-34.3-90.1-34.3-124.4 0L528 153v-45.5c9.5-5.5 16-15.7 16-27.6 0-11.8-6.5-22-16-27.6V32c0-8.8-7.2-16-16-16s-16 7.2-16 16v20.4c-9.5 5.5-16 15.7-16 27.6 0 11.8 6.5 22 16 27.6V153l-12.3-12.3c-34.3-34.3-90.1-34.3-124.5 0-34.3 34.3-34.3 90.1 0 124.5l28.3 28.3-56.5 56.6-28.3-28.3C286.1 305.2 264 296 240.5 296s-45.6 9.2-62.2 25.8-25.8 38.7-25.8 62.2 9.2 45.6 25.8 62.2S217 472 240.5 472s45.6-9.2 62.2-25.8l28.3-28.3 56.6 56.6-28.3 28.3c-34.3 34.3-34.3 90.1 0 124.5 17.2 17.2 39.7 25.7 62.2 25.7s45.1-8.6 62.2-25.7L496 615v29.5c-9.5 5.5-16 15.7-16 27.6 0 11.8 6.5 22 16 27.6V736h-16c-8.8 0-16 7.2-16 16v32h96v-32c0-8.8-7.2-16-16-16h-16v-36.4c9.5-5.5 16-15.7 16-27.6 0-11.8-6.5-22-16-27.6V615l12.3 12.3c17.2 17.2 39.7 25.7 62.2 25.7s45.1-8.6 62.2-25.7c34.3-34.3 34.3-90.1 0-124.5l-28.3-28.3 56.6-56.6 28.3 28.3c16.6 16.6 38.7 25.8 62.2 25.8s45.6-9.2 62.2-25.8 25.8-38.7 25.8-62.2-9.1-45.6-25.7-62.2z m-577 90.5c-15.1 15.1-41.5 15.1-56.6 0-7.6-7.6-11.7-17.6-11.7-28.3s4.2-20.7 11.7-28.3c7.5-7.6 17.6-11.7 28.3-11.7s20.7 4.2 28.3 11.7L297 384l-28.2 28.3zM512 350.1l-56.6-56.6 56.6-56.6 56.6 56.6-56.6 56.6z m0 67.8l56.6 56.6-56.6 56.6-56.6-56.6 56.6-56.6z m-90.5-90.5l56.6 56.6-56.6 56.6-56.6-56.6 56.6-56.6z m181 113.2L545.9 384l56.6-56.6 56.6 56.6-56.6 56.6z m28.3-265.9c15.6 15.6 15.6 41 0 56.6l-28.3 28.3-56.6-56.6 28.3-28.3c15.6-15.6 41-15.6 56.6 0z m-237.6 0c7.8-7.8 18-11.7 28.3-11.7 10.2 0 20.5 3.9 28.3 11.7l28.3 28.3-56.6 56.6-28.3-28.3c-15.6-15.6-15.6-41 0-56.6z m0 418.6c-15.6-15.6-15.6-41 0-56.6l28.3-28.3 56.6 56.6-28.3 28.3c-15.6 15.6-41 15.6-56.6 0z m237.6 0c-15.6 15.6-41 15.6-56.6 0L545.9 565l56.6-56.6 28.3 28.3c15.6 15.6 15.6 41 0 56.6z m181-181c-15.1 15.1-41.5 15.1-56.6 0L727 384l28.3-28.3c15.1-15.1 41.5-15.1 56.6 0 7.6 7.6 11.7 17.6 11.7 28.3s-4.2 20.7-11.8 28.3z" fill="rgb(203,50,50)" p-id="9899"></path><path d="M464 800h96v208h-96z" fill="#d81e06" p-id="9900"></path></svg>