<?xml version="1.0" standalone="no"?><!DOCTYPE svg PUBLIC "-//W3C//DTD SVG 1.1//EN" "http://www.w3.org/Graphics/SVG/1.1/DTD/svg11.dtd"><svg t="1620956378302" preserveAspectRatio="none" class="icon" viewBox="0 0 1024 1024" version="1.1" xmlns="http://www.w3.org/2000/svg" p-id="8705" xmlns:xlink="http://www.w3.org/1999/xlink" width="450" height="380"><defs><style type="text/css"></style></defs><path d="M734.8 64.4h85.4v71.8h74.1V64.4H960v895.3h-65.7v-71.2h-74.1v71.2h-79.3V823H291.5v136.6h-85.9l6.2-71.2h-74.1l-6.2 71.2H64V64.4h73.6v71.8h74.1V64.4h73.7v129.9h449.5V64.4h-0.1z m159.5 401.3v-72.3h-74.1v72.3h74.1zM737.9 299.4H288.4v420.3h449.5V299.4z m156.4 337.5v-72.3h-74.1v72.3h74.1z m0 163.7v-72.3h-74.1v72.3h74.1z m-756.7-72.3v72.3h74.1v-72.3h-74.1z m0-163.7v72.3h74.1v-72.3h-74.1z m0-168.9V468h74.1v-72.3h-74.1z m0-165.9v72.3h74.1v-72.3h-74.1z m682.7 0v72.3h74.1v-72.3h-74.1z" transform="translate(-70,1030)rotate(-90)" preserveAspectRatio="none" p-id="8706"></path></svg>