<?xml version="1.0" standalone="no"?><!DOCTYPE svg PUBLIC "-//W3C//DTD SVG 1.1//EN" "http://www.w3.org/Graphics/SVG/1.1/DTD/svg11.dtd"><svg t="1620900582236" class="icon" viewBox="0 0 1024 1024" version="1.1" xmlns="http://www.w3.org/2000/svg" p-id="11590" xmlns:xlink="http://www.w3.org/1999/xlink" width="30" height="30"><defs><style type="text/css"></style></defs><path d="M354.461538 118.153846v78.769231c129.969231 0 236.307692 106.338462 236.307693 236.307692 0 27.569231-3.938462 55.138462-15.753846 78.769231H787.692308v78.769231l118.153846-78.769231h78.769231V118.153846H354.461538z m512 315.076923h-157.538461V354.461538h157.538461v78.769231z m0-157.538461h-236.307692V196.923077h236.307692v78.769231z" fill="#d81e06" p-id="11591"></path><path d="M354.461538 433.230769m-157.538461 0a157.538462 157.538462 0 1 0 315.076923 0 157.538462 157.538462 0 1 0-315.076923 0Z" fill="rgb(203,50,50)" p-id="11592"></path><path d="M354.461538 669.538462c-173.292308 0-315.076923-3.938462-315.076923 236.307692h630.153847c0-240.246154-141.784615-236.307692-315.076924-236.307692z" fill="rgb(203,50,50)" p-id="11593"></path></svg>