<?xml version="1.0" standalone="no"?><!DOCTYPE svg PUBLIC "-//W3C//DTD SVG 1.1//EN" "http://www.w3.org/Graphics/SVG/1.1/DTD/svg11.dtd"><svg t="1620898360652" class="icon" viewBox="0 0 1024 1024" version="1.1" xmlns="http://www.w3.org/2000/svg" p-id="2816" xmlns:xlink="http://www.w3.org/1999/xlink" width="30" height="30"><defs><style type="text/css"></style></defs><path d="M537.685 60c60.996 0 110.443 49.407 110.443 110.354v676.27c0 7.666-0.8 15.312-2.386 22.813-12.61 59.63-71.211 97.756-130.89 85.157l-359.241-75.847C104.54 867.965 68 822.932 68 770.777v-517.79c0-51.41 35.527-96.01 85.667-107.542l359.242-82.632A110.528 110.528 0 0 1 537.685 60z m345.385 3.118c41.935 0 75.93 33.967 75.93 75.868V874.68c0 41.9-33.995 75.868-75.93 75.868H781.83c-41.934 0-75.929-33.967-75.929-75.868V138.986c0-41.9 33.995-75.868 75.93-75.868z m-345.385 56.657c-3.822 0-7.631 0.433-11.356 1.29l-359.242 82.632c-22.98 5.285-39.264 25.727-39.264 49.29v517.79c0 23.904 16.749 44.545 40.155 49.487L527.22 896.11c27.353 5.775 54.212-11.7 59.991-39.03a50.54 50.54 0 0 0 1.094-10.457V170.354c0-27.934-22.663-50.579-50.62-50.579z m345.385 3.118H781.83c-8.895 0-16.106 7.205-16.106 16.093V874.68c0 8.888 7.211 16.093 16.107 16.093h101.24c8.895 0 16.106-7.205 16.106-16.093V138.986c0-8.888-7.211-16.093-16.107-16.093z m-455.196 289.68c16.283 0 29.528 13 29.903 29.181l0.008 0.706v127.078c0 16.507-13.392 29.888-29.911 29.888-16.284 0-29.529-13.002-29.904-29.182l-0.008-0.706V442.46c0-16.507 13.392-29.888 29.912-29.888z" fill="rgb(203,50,50)" p-id="2817"></path></svg>