<?xml version="1.0" standalone="no"?><!DOCTYPE svg PUBLIC "-//W3C//DTD SVG 1.1//EN" "http://www.w3.org/Graphics/SVG/1.1/DTD/svg11.dtd"><svg t="1620909732916" class="icon" viewBox="0 0 1024 1024" version="1.1" xmlns="http://www.w3.org/2000/svg" p-id="1929" xmlns:xlink="http://www.w3.org/1999/xlink" width="30" height="30"><defs><style type="text/css"></style></defs><path d="M692.48 985.6c-10.24 0-19.84-4.48-25.6-12.16-6.4 7.68-15.36 12.16-25.6 12.16h-1.92l-239.36-61.44c-10.24 0-18.56-5.12-24.96-12.16-5.76 7.04-15.36 12.16-24.96 12.16l-265.6 30.72c-1.92 0-4.48-0.64-5.76-1.92-1.92-1.28-2.56-3.2-2.56-5.76V145.28c0-3.84 3.2-7.04 6.4-7.68l265.6-30.72h0.64c10.24 0 19.84 4.48 25.6 12.16 6.4-7.68 15.36-12.16 25.6-12.16h1.92l239.36 61.44c10.24 0 18.56 5.12 24.96 12.16 5.76-7.04 15.36-12.16 24.96-12.16l265.6-35.84c1.92 0 4.48 0.64 5.76 1.92 1.92 1.28 2.56 3.2 2.56 5.76v801.92c0 3.84-2.56 7.04-6.4 7.68l-265.6 35.84h-0.64z m-17.92-33.28c0 9.6 7.68 17.92 17.92 17.92l258.56-35.2V149.12l-257.28 34.56h-1.28c-10.24 0-17.92 8.32-17.92 17.92 0 4.48-3.2 7.68-7.68 7.68s-7.68-3.2-7.68-7.68c0-10.24-8.32-17.92-17.92-17.92h-1.92l-239.36-61.44c-9.6 0.64-17.28 8.32-17.28 17.92 0 4.48-3.2 7.68-7.68 7.68s-7.68-3.2-7.68-7.68c0-9.6-7.68-17.92-17.92-17.92l-258.56 30.08v786.56l257.28-30.08h0.64c10.24 0 17.92-8.32 17.92-17.92 0-4.48 3.2-7.68 7.68-7.68s7.68 3.2 7.68 7.68c0 10.24 8.32 17.92 17.92 17.92h1.92l239.36 61.44c9.6-0.64 17.28-8.32 17.28-17.92 0-4.48 3.2-7.68 7.68-7.68s8.32 3.2 8.32 7.68z" fill="#d81e06" p-id="1930"></path><path d="M120.32 407.68c-1.92 0-3.84-0.64-5.12-1.92-1.92-1.28-2.56-3.84-2.56-5.76V181.76c0-3.84 2.56-7.04 6.4-7.68l218.88-30.72c1.92 0 4.48 0.64 5.76 1.92 1.92 1.28 2.56 3.84 2.56 5.76v218.88c0 3.84-2.56 7.04-6.4 7.68L121.6 407.68h-1.28zM128 188.16v203.52l203.52-28.8V159.36L128 188.16zM630.4 693.76h-1.92L409.6 631.68c-3.2-0.64-5.76-3.84-5.76-7.04V405.76c0-2.56 1.28-4.48 3.2-5.76 1.92-1.28 4.48-1.92 6.4-1.28l218.88 61.44c3.2 0.64 5.76 3.84 5.76 7.04v218.88c0 2.56-1.28 4.48-3.2 5.76-1.28 1.28-2.56 1.92-4.48 1.92z m-211.2-74.88l203.52 57.6V473.6l-203.52-57.6v202.88zM704 949.76c-1.92 0-3.84-0.64-5.12-1.92-1.92-1.28-2.56-3.84-2.56-5.76V723.2c0-3.84 2.56-7.04 6.4-7.68l218.88-35.84c1.92-0.64 4.48 0 6.4 1.92 1.92 1.28 2.56 3.84 2.56 5.76v218.88c0 3.84-2.56 7.04-6.4 7.68l-218.88 35.84c-0.64-0.64-1.28 0-1.28 0z m7.68-220.16v203.52l203.52-33.28v-203.52l-203.52 33.28z" fill="#d81e06" p-id="1931"></path><path d="M120.32 444.16c-3.84 0-7.04-2.56-7.68-6.4-0.64-3.84 2.56-7.68 6.4-8.32l218.88-30.72c3.84-0.64 7.68 2.56 8.32 6.4 0.64 3.84-2.56 7.68-6.4 8.32L121.6 444.16h-1.28zM156.16 480c-3.84 0-7.04-2.56-7.68-6.4-0.64-3.84 1.92-8.32 6.4-8.96l146.56-25.6c3.84-0.64 8.32 1.92 8.96 6.4 0.64 3.84-1.92 8.32-6.4 8.96l-146.56 25.6h-1.28zM156.16 515.84c-3.84 0-7.04-2.56-7.68-6.4-0.64-3.84 1.92-8.32 6.4-8.96l146.56-25.6c3.84-0.64 8.32 1.92 8.96 6.4 0.64 3.84-1.92 8.32-6.4 8.96l-146.56 25.6h-1.28zM120.32 918.4c-1.92 0-3.84-0.64-5.12-1.92-1.92-1.28-2.56-3.84-2.56-5.76v-73.6c0-3.84 2.56-7.04 6.4-7.68l218.88-30.72c1.92-0.64 4.48 0.64 5.76 1.92 1.92 1.28 2.56 3.84 2.56 5.76v73.6c0 3.84-2.56 7.04-6.4 7.68L121.6 918.4h-1.28z m7.68-74.24v58.24l203.52-28.8v-58.24L128 844.16zM630.4 949.12h-1.92L409.6 887.04c-3.2-0.64-5.76-3.84-5.76-7.04V806.4c0-2.56 1.28-4.48 3.2-5.76 1.92-1.28 4.48-1.92 6.4-1.28l218.88 61.44c3.2 0.64 5.76 3.84 5.76 7.04v73.6c0 2.56-1.28 4.48-3.2 5.76-1.28 1.28-2.56 1.92-4.48 1.92z m-211.2-74.88l203.52 57.6v-57.6l-203.52-57.6v57.6zM630.4 293.76h-1.92L409.6 231.68c-3.2-0.64-5.76-3.84-5.76-7.04V151.04c0-2.56 1.28-4.48 3.2-5.76 1.92-1.28 4.48-1.92 6.4-1.28l218.88 61.44c3.2 0.64 5.76 3.84 5.76 7.04v73.6c0 2.56-1.28 4.48-3.2 5.76-1.28 1.28-2.56 1.92-4.48 1.92z m-211.2-75.52l203.52 57.6v-57.6l-203.52-57.6v57.6zM704 293.76c-1.92 0-3.84-0.64-5.12-1.92-1.92-1.28-2.56-3.84-2.56-5.76V212.48c0-3.84 2.56-7.04 6.4-7.68l218.88-35.84c1.92-0.64 4.48 0 6.4 1.92 1.92 1.28 2.56 3.84 2.56 5.76v73.6c0 3.84-2.56 7.04-6.4 7.68l-218.88 35.84h-1.28z m7.68-74.88v58.24L915.2 243.2v-57.6l-203.52 33.28zM704 402.56c-1.92 0-3.84-0.64-5.12-1.92-1.92-1.28-2.56-3.84-2.56-5.76V321.92c0-3.84 2.56-7.04 6.4-7.68l218.88-35.84c1.92-0.64 4.48 0 6.4 1.92 1.92 1.28 2.56 3.84 2.56 5.76v73.6c0 3.84-2.56 7.04-6.4 7.68L705.28 403.2c-0.64-0.64-1.28-0.64-1.28-0.64z m7.68-74.24v58.24l203.52-33.28v-58.24l-203.52 33.28zM704 512c-1.92 0-3.84-0.64-5.12-1.92-1.92-1.28-2.56-3.84-2.56-5.76V431.36c0-3.84 2.56-7.04 6.4-7.68l218.88-35.84c1.92-0.64 4.48 0 6.4 1.92 1.92 1.28 2.56 3.84 2.56 5.76v73.6c0 3.84-2.56 7.04-6.4 7.68L705.28 512h-1.28z m7.68-74.24v58.24l203.52-33.28v-58.24l-203.52 33.28zM120.32 814.08c-1.92 0-3.84-0.64-5.12-1.92-1.92-1.28-2.56-3.84-2.56-5.76v-36.48c0-3.84 2.56-7.04 6.4-7.68l36.48-5.12c1.92-0.64 4.48 0.64 5.76 1.92 1.92 1.28 2.56 3.84 2.56 5.76v36.48c0 3.84-2.56 7.04-6.4 7.68l-36.48 5.12h-0.64z m7.68-37.76v21.12l21.12-3.2v-21.12l-21.12 3.2zM120.32 741.76c-1.92 0-3.84-0.64-5.12-1.92-1.92-1.28-2.56-3.84-2.56-5.76V697.6c0-3.84 2.56-7.04 6.4-7.68l36.48-5.12c1.92-0.64 4.48 0.64 5.76 1.92 1.92 1.28 2.56 3.84 2.56 5.76v36.48c0 3.84-2.56 7.04-6.4 7.68l-36.48 5.12h-0.64zM128 704v21.12l21.12-3.2v-21.12l-21.12 3.2zM120.32 668.8c-1.92 0-3.84-0.64-5.12-1.92-1.92-1.28-2.56-3.84-2.56-5.76v-36.48c0-3.84 2.56-7.04 6.4-7.68l36.48-5.12c1.92 0 4.48 0.64 5.76 1.92 1.92 1.28 2.56 3.84 2.56 5.76v36.48c0 3.84-2.56 7.04-6.4 7.68l-36.48 5.12h-0.64z m7.68-37.12v21.12l21.12-3.2v-21.12l-21.12 3.2zM120.32 596.48c-1.92 0-3.84-0.64-5.12-1.92-1.92-1.28-2.56-3.84-2.56-5.76v-36.48c0-3.84 2.56-7.04 6.4-7.68l36.48-5.12c1.92-0.64 4.48 0.64 5.76 1.92 1.92 1.28 2.56 3.84 2.56 5.76v36.48c0 3.84-2.56 7.04-6.4 7.68l-35.84 5.12h-1.28z m7.68-37.12v21.12l21.12-3.2v-21.12l-21.12 3.2zM192.64 549.76c-3.84 0-7.04-2.56-7.68-6.4-0.64-3.84 1.92-8.32 6.4-8.96l145.92-25.6c3.84-0.64 8.32 1.92 8.96 6.4 0.64 3.84-1.92 8.32-6.4 8.96l-145.92 25.6h-1.28zM192.64 586.24c-3.84 0-7.04-2.56-7.68-6.4-0.64-3.84 1.92-8.32 6.4-8.96l145.92-25.6c3.84-0.64 8.32 1.92 8.96 6.4 0.64 3.84-1.92 8.32-6.4 8.96l-145.92 25.6h-1.28zM192.64 622.08c-3.84 0-7.04-2.56-7.68-6.4-0.64-3.84 1.92-8.32 6.4-8.96l145.92-25.6c3.84-0.64 8.32 1.92 8.96 6.4 0.64 3.84-1.92 8.32-6.4 8.96l-145.92 25.6h-1.28zM192.64 658.56c-3.84 0-7.04-2.56-7.68-6.4-0.64-3.84 1.92-8.32 6.4-8.96l145.92-25.6c3.84-0.64 8.32 1.92 8.96 6.4 0.64 3.84-1.92 8.32-6.4 8.96l-145.92 25.6h-1.28zM192.64 695.04c-3.84 0-7.04-2.56-7.68-6.4-0.64-3.84 1.92-8.32 6.4-8.96l145.92-25.6c3.84-0.64 8.32 1.92 8.96 6.4 0.64 3.84-1.92 8.32-6.4 8.96l-145.92 25.6h-1.28zM192.64 731.52c-3.84 0-7.04-2.56-7.68-6.4-0.64-3.84 1.92-8.32 6.4-8.96l145.92-25.6c3.84-0.64 8.32 1.92 8.96 6.4 0.64 3.84-1.92 8.32-6.4 8.96l-145.92 25.6h-1.28zM192.64 767.36c-3.84 0-7.04-2.56-7.68-6.4-0.64-3.84 1.92-8.32 6.4-8.96l145.92-25.6c3.84-0.64 8.32 1.92 8.96 6.4 0.64 3.84-1.92 8.32-6.4 8.96l-145.92 25.6h-1.28zM192.64 803.84c-3.84 0-7.04-2.56-7.68-6.4-0.64-3.84 1.92-8.32 6.4-8.96l145.92-25.6c3.84-0.64 8.32 1.92 8.96 6.4 0.64 3.84-1.92 8.32-6.4 8.96l-145.92 25.6h-1.28zM375.68 169.6c-4.48 0-7.68-3.2-7.68-7.68v-1.28c0-4.48 3.2-7.68 7.68-7.68s7.68 3.2 7.68 7.68v1.28c-0.64 4.48-3.84 7.68-7.68 7.68zM375.68 857.6c-4.48 0-7.68-3.2-7.68-7.68v-3.2c0-4.48 3.2-7.68 7.68-7.68s7.68 3.2 7.68 7.68v3.2c-0.64 3.84-3.84 7.68-7.68 7.68z m0-21.76c-4.48 0-7.68-3.2-7.68-7.68v-2.56c0-4.48 3.2-7.68 7.68-7.68s7.68 3.2 7.68 7.68v3.2c-0.64 3.84-3.84 7.04-7.68 7.04z m0-21.12c-4.48 0-7.68-3.2-7.68-7.68v-3.2c0-4.48 3.2-7.68 7.68-7.68s7.68 3.2 7.68 7.68v3.2c-0.64 3.84-3.84 7.68-7.68 7.68z m0-21.76c-4.48 0-7.68-3.2-7.68-7.68v-3.2c0-4.48 3.2-7.68 7.68-7.68s7.68 3.2 7.68 7.68v3.2c-0.64 4.48-3.84 7.68-7.68 7.68z m0-21.76c-4.48 0-7.68-3.2-7.68-7.68v-3.2c0-4.48 3.2-7.68 7.68-7.68s7.68 3.2 7.68 7.68v3.2c-0.64 4.48-3.84 7.68-7.68 7.68z m0-21.12c-4.48 0-7.68-3.2-7.68-7.68v-3.2c0-4.48 3.2-7.68 7.68-7.68s7.68 3.2 7.68 7.68v3.2c-0.64 4.48-3.84 7.68-7.68 7.68z m0-21.76c-4.48 0-7.68-3.2-7.68-7.68v-3.2c0-4.48 3.2-7.68 7.68-7.68s7.68 3.2 7.68 7.68v3.2c-0.64 4.48-3.84 7.68-7.68 7.68z m0-21.12c-4.48 0-7.68-3.2-7.68-7.68v-3.2c0-4.48 3.2-7.68 7.68-7.68s7.68 3.2 7.68 7.68v3.2c-0.64 3.84-3.84 7.68-7.68 7.68z m0-21.76c-4.48 0-7.68-3.2-7.68-7.68v-3.2c0-4.48 3.2-7.68 7.68-7.68s7.68 3.2 7.68 7.68v3.2c-0.64 4.48-3.84 7.68-7.68 7.68z m0-21.12c-4.48 0-7.68-3.2-7.68-7.68v-3.2c0-4.48 3.2-7.68 7.68-7.68s7.68 3.2 7.68 7.68v3.2c-0.64 3.84-3.84 7.68-7.68 7.68z m0-21.76c-4.48 0-7.68-3.2-7.68-7.68v-3.2c0-4.48 3.2-7.68 7.68-7.68s7.68 3.2 7.68 7.68v3.2c-0.64 4.48-3.84 7.68-7.68 7.68z m0-21.76c-4.48 0-7.68-3.2-7.68-7.68v-3.2c0-4.48 3.2-7.68 7.68-7.68s7.68 3.2 7.68 7.68v3.2c-0.64 4.48-3.84 7.68-7.68 7.68z m0-21.12c-4.48 0-7.68-3.2-7.68-7.68V588.8c0-4.48 3.2-7.68 7.68-7.68s7.68 3.2 7.68 7.68v3.2c-0.64 4.48-3.84 7.68-7.68 7.68z m0-21.76c-4.48 0-7.68-3.2-7.68-7.68v-3.2c0-4.48 3.2-7.68 7.68-7.68s7.68 3.2 7.68 7.68v3.2c-0.64 4.48-3.84 7.68-7.68 7.68z m0-21.12c-4.48 0-7.68-3.2-7.68-7.68v-3.2c0-4.48 3.2-7.68 7.68-7.68s7.68 3.2 7.68 7.68v3.2c-0.64 3.84-3.84 7.68-7.68 7.68z m0-21.76c-4.48 0-7.68-3.2-7.68-7.68V524.8c0-4.48 3.2-7.68 7.68-7.68s7.68 3.2 7.68 7.68v3.2c-0.64 3.84-3.84 7.04-7.68 7.04z m0-21.12c-4.48 0-7.68-3.2-7.68-7.68v-3.2c0-4.48 3.2-7.68 7.68-7.68s7.68 3.2 7.68 7.68v3.2c-0.64 3.84-3.84 7.68-7.68 7.68z m0-21.76c-4.48 0-7.68-3.2-7.68-7.68v-3.2c0-4.48 3.2-7.68 7.68-7.68s7.68 3.2 7.68 7.68v3.2c-0.64 4.48-3.84 7.68-7.68 7.68z m0-21.76c-4.48 0-7.68-3.2-7.68-7.68v-3.2c0-4.48 3.2-7.68 7.68-7.68s7.68 3.2 7.68 7.68v3.2c-0.64 4.48-3.84 7.68-7.68 7.68z m0-21.12c-4.48 0-7.68-3.2-7.68-7.68v-3.2c0-4.48 3.2-7.68 7.68-7.68s7.68 3.2 7.68 7.68v3.2c-0.64 4.48-3.84 7.68-7.68 7.68z m0-21.76c-4.48 0-7.68-3.2-7.68-7.68v-3.2c0-4.48 3.2-7.68 7.68-7.68s7.68 3.2 7.68 7.68v3.2c-0.64 4.48-3.84 7.68-7.68 7.68z m0-21.12c-4.48 0-7.68-3.2-7.68-7.68v-3.2c0-4.48 3.2-7.68 7.68-7.68s7.68 3.2 7.68 7.68v3.2c-0.64 3.84-3.84 7.68-7.68 7.68z m0-21.76c-4.48 0-7.68-3.2-7.68-7.68v-3.2c0-4.48 3.2-7.68 7.68-7.68s7.68 3.2 7.68 7.68v3.2c-0.64 4.48-3.84 7.68-7.68 7.68z m0-21.12c-4.48 0-7.68-3.2-7.68-7.68v-3.2c0-4.48 3.2-7.68 7.68-7.68s7.68 3.2 7.68 7.68v3.2c-0.64 3.84-3.84 7.68-7.68 7.68z m0-21.76c-4.48 0-7.68-3.2-7.68-7.68v-3.2c0-4.48 3.2-7.68 7.68-7.68s7.68 3.2 7.68 7.68v3.2c-0.64 4.48-3.84 7.68-7.68 7.68z m0-21.76c-4.48 0-7.68-3.2-7.68-7.68v-3.2c0-4.48 3.2-7.68 7.68-7.68s7.68 3.2 7.68 7.68v3.2c-0.64 4.48-3.84 7.68-7.68 7.68z m0-21.12c-4.48 0-7.68-3.2-7.68-7.68V288c0-4.48 3.2-7.68 7.68-7.68s7.68 3.2 7.68 7.68v3.2c-0.64 4.48-3.84 7.68-7.68 7.68z m0-21.76c-4.48 0-7.68-3.2-7.68-7.68v-3.2c0-4.48 3.2-7.68 7.68-7.68s7.68 3.2 7.68 7.68v3.2c-0.64 4.48-3.84 7.68-7.68 7.68z m0-21.12c-4.48 0-7.68-3.2-7.68-7.68v-3.2c0-4.48 3.2-7.68 7.68-7.68s7.68 3.2 7.68 7.68v3.2c-0.64 3.84-3.84 7.68-7.68 7.68z m0-21.76c-4.48 0-7.68-3.2-7.68-7.68V224c0-4.48 3.2-7.68 7.68-7.68s7.68 3.2 7.68 7.68v3.2c-0.64 3.84-3.84 7.04-7.68 7.04z m0-21.76c-4.48 0-7.68-3.2-7.68-7.68v-3.2c0-4.48 3.2-7.68 7.68-7.68s7.68 3.2 7.68 7.68v3.2c-0.64 4.48-3.84 7.68-7.68 7.68z m0-21.12c-4.48 0-7.68-3.2-7.68-7.68v-3.2c0-4.48 3.2-7.68 7.68-7.68s7.68 3.2 7.68 7.68v3.2c-0.64 4.48-3.84 7.68-7.68 7.68zM375.68 877.44c-4.48 0-7.68-3.2-7.68-7.68v-1.28c0-4.48 3.2-7.68 7.68-7.68s7.68 3.2 7.68 7.68v1.28c-0.64 4.48-3.84 7.68-7.68 7.68zM666.88 231.68c-4.48 0-7.68-3.2-7.68-7.68v-1.28c0-4.48 3.2-7.68 7.68-7.68s7.68 3.2 7.68 7.68v1.28c0 3.84-3.2 7.68-7.68 7.68zM666.88 919.04c-4.48 0-7.68-3.2-7.68-7.68v-2.56c0-4.48 3.2-7.68 7.68-7.68s7.68 3.2 7.68 7.68v3.2c0 3.84-3.2 7.04-7.68 7.04z m0-21.12c-4.48 0-7.68-3.2-7.68-7.68v-3.2c0-4.48 3.2-7.68 7.68-7.68s7.68 3.2 7.68 7.68v3.2c0 3.84-3.2 7.68-7.68 7.68z m0-21.76c-4.48 0-7.68-3.2-7.68-7.68v-3.2c0-4.48 3.2-7.68 7.68-7.68s7.68 3.2 7.68 7.68v3.2c0 4.48-3.2 7.68-7.68 7.68z m0-21.76c-4.48 0-7.68-3.2-7.68-7.68v-3.2c0-4.48 3.2-7.68 7.68-7.68s7.68 3.2 7.68 7.68v3.2c0 4.48-3.2 7.68-7.68 7.68z m0-21.12c-4.48 0-7.68-3.2-7.68-7.68v-3.2c0-4.48 3.2-7.68 7.68-7.68s7.68 3.2 7.68 7.68v3.2c0 4.48-3.2 7.68-7.68 7.68z m0-21.76c-4.48 0-7.68-3.2-7.68-7.68v-3.2c0-4.48 3.2-7.68 7.68-7.68s7.68 3.2 7.68 7.68v3.2c0 4.48-3.2 7.68-7.68 7.68z m0-21.12c-4.48 0-7.68-3.2-7.68-7.68v-3.2c0-4.48 3.2-7.68 7.68-7.68s7.68 3.2 7.68 7.68v3.2c0 3.84-3.2 7.68-7.68 7.68z m0-21.76c-4.48 0-7.68-3.2-7.68-7.68v-3.2c0-4.48 3.2-7.68 7.68-7.68s7.68 3.2 7.68 7.68v3.2c0 4.48-3.2 7.68-7.68 7.68z m0-21.12c-4.48 0-7.68-3.2-7.68-7.68v-3.2c0-4.48 3.2-7.68 7.68-7.68s7.68 3.2 7.68 7.68v3.2c0 3.84-3.2 7.68-7.68 7.68z m0-21.76c-4.48 0-7.68-3.2-7.68-7.68v-3.2c0-4.48 3.2-7.68 7.68-7.68s7.68 3.2 7.68 7.68v3.2c0 4.48-3.2 7.68-7.68 7.68z m0-21.76c-4.48 0-7.68-3.2-7.68-7.68v-3.2c0-4.48 3.2-7.68 7.68-7.68s7.68 3.2 7.68 7.68v3.2c0 4.48-3.2 7.68-7.68 7.68z m0-21.12c-4.48 0-7.68-3.2-7.68-7.68v-3.2c0-4.48 3.2-7.68 7.68-7.68s7.68 3.2 7.68 7.68v3.2c0 4.48-3.2 7.68-7.68 7.68z m0-21.76c-4.48 0-7.68-3.2-7.68-7.68v-3.2c0-4.48 3.2-7.68 7.68-7.68s7.68 3.2 7.68 7.68v3.2c0 4.48-3.2 7.68-7.68 7.68z m0-21.12c-4.48 0-7.68-3.2-7.68-7.68v-3.2c0-4.48 3.2-7.68 7.68-7.68s7.68 3.2 7.68 7.68v3.2c0 3.84-3.2 7.68-7.68 7.68z m0-21.76c-4.48 0-7.68-3.2-7.68-7.68V608c0-4.48 3.2-7.68 7.68-7.68s7.68 3.2 7.68 7.68v3.2c0 3.84-3.2 7.04-7.68 7.04z m0-21.12c-4.48 0-7.68-3.2-7.68-7.68v-3.2c0-4.48 3.2-7.68 7.68-7.68s7.68 3.2 7.68 7.68v3.2c0 3.84-3.2 7.68-7.68 7.68z m0-21.76c-4.48 0-7.68-3.2-7.68-7.68v-3.2c0-4.48 3.2-7.68 7.68-7.68s7.68 3.2 7.68 7.68v3.2c0 4.48-3.2 7.68-7.68 7.68z m0-21.76c-4.48 0-7.68-3.2-7.68-7.68v-3.2c0-4.48 3.2-7.68 7.68-7.68s7.68 3.2 7.68 7.68v3.2c0 4.48-3.2 7.68-7.68 7.68z m0-21.12c-4.48 0-7.68-3.2-7.68-7.68v-3.2c0-4.48 3.2-7.68 7.68-7.68s7.68 3.2 7.68 7.68v3.2c0 4.48-3.2 7.68-7.68 7.68z m0-21.76c-4.48 0-7.68-3.2-7.68-7.68v-3.2c0-4.48 3.2-7.68 7.68-7.68s7.68 3.2 7.68 7.68v3.2c0 4.48-3.2 7.68-7.68 7.68z m0-21.12c-4.48 0-7.68-3.2-7.68-7.68v-3.2c0-4.48 3.2-7.68 7.68-7.68s7.68 3.2 7.68 7.68v3.2c0 3.84-3.2 7.68-7.68 7.68z m0-21.76c-4.48 0-7.68-3.2-7.68-7.68v-3.2c0-4.48 3.2-7.68 7.68-7.68s7.68 3.2 7.68 7.68v3.2c0 4.48-3.2 7.68-7.68 7.68z m0-21.12c-4.48 0-7.68-3.2-7.68-7.68v-3.2c0-4.48 3.2-7.68 7.68-7.68s7.68 3.2 7.68 7.68v3.2c0 3.84-3.2 7.68-7.68 7.68z m0-21.76c-4.48 0-7.68-3.2-7.68-7.68v-3.2c0-4.48 3.2-7.68 7.68-7.68s7.68 3.2 7.68 7.68v3.2c0 4.48-3.2 7.68-7.68 7.68z m0-21.76c-4.48 0-7.68-3.2-7.68-7.68v-3.2c0-4.48 3.2-7.68 7.68-7.68s7.68 3.2 7.68 7.68v3.2c0 4.48-3.2 7.68-7.68 7.68z m0-21.12c-4.48 0-7.68-3.2-7.68-7.68V371.2c0-4.48 3.2-7.68 7.68-7.68s7.68 3.2 7.68 7.68v3.2c0 3.84-3.2 7.68-7.68 7.68z m0-21.76c-4.48 0-7.68-3.2-7.68-7.68v-3.2c0-4.48 3.2-7.68 7.68-7.68s7.68 3.2 7.68 7.68v3.2c0 4.48-3.2 7.68-7.68 7.68z m0-21.12c-4.48 0-7.68-3.2-7.68-7.68v-3.2c0-4.48 3.2-7.68 7.68-7.68s7.68 3.2 7.68 7.68v3.2c0 3.84-3.2 7.68-7.68 7.68z m0-21.76c-4.48 0-7.68-3.2-7.68-7.68V307.2c0-4.48 3.2-7.68 7.68-7.68s7.68 3.2 7.68 7.68v3.2c0 3.84-3.2 7.04-7.68 7.04z m0-21.76c-4.48 0-7.68-3.2-7.68-7.68v-3.2c0-4.48 3.2-7.68 7.68-7.68s7.68 3.2 7.68 7.68v3.2c0 4.48-3.2 7.68-7.68 7.68z m0-21.12c-4.48 0-7.68-3.2-7.68-7.68v-3.2c0-4.48 3.2-7.68 7.68-7.68s7.68 3.2 7.68 7.68v3.2c0 4.48-3.2 7.68-7.68 7.68z m0-21.76c-4.48 0-7.68-3.2-7.68-7.68v-3.2c0-4.48 3.2-7.68 7.68-7.68s7.68 3.2 7.68 7.68v3.2c0 4.48-3.2 7.68-7.68 7.68zM666.88 938.88c-4.48 0-7.68-3.2-7.68-7.68v-1.28c0-4.48 3.2-7.68 7.68-7.68s7.68 3.2 7.68 7.68v1.28c0 4.48-3.2 7.68-7.68 7.68zM630.4 730.24h-1.92L409.6 668.16c-3.84-1.28-6.4-5.12-5.12-9.6 1.28-3.84 5.12-6.4 9.6-5.12l218.88 61.44c3.84 1.28 6.4 5.12 5.12 9.6-1.28 3.2-4.48 5.76-7.68 5.76zM630.4 766.08h-1.92L409.6 704c-3.84-1.28-6.4-5.12-5.12-9.6 1.28-3.84 5.12-6.4 9.6-5.12l218.88 61.44c3.84 1.28 6.4 5.12 5.12 9.6-1.28 3.2-4.48 5.76-7.68 5.76zM630.4 801.92h-1.92L409.6 739.84c-3.84-1.28-6.4-5.12-5.12-9.6 1.28-3.84 5.12-6.4 9.6-5.12l218.88 61.44c3.84 1.28 6.4 5.12 5.12 9.6-1.28 3.84-4.48 5.76-7.68 5.76zM630.4 837.76h-1.92L409.6 775.68c-3.84-1.28-6.4-5.12-5.12-9.6 1.28-3.84 5.12-6.4 9.6-5.12l218.88 61.44c3.84 1.28 6.4 5.12 5.12 9.6-1.28 3.84-4.48 5.76-7.68 5.76zM630.4 331.52h-1.92L409.6 269.44c-3.84-1.28-6.4-5.12-5.12-9.6 1.28-3.84 5.12-6.4 9.6-5.12l218.88 61.44c3.84 1.28 6.4 5.12 5.12 9.6-1.28 3.2-4.48 5.76-7.68 5.76zM630.4 367.36h-1.92L409.6 305.28c-3.84-1.28-6.4-5.12-5.12-9.6 1.28-3.84 5.12-6.4 9.6-5.12L632.96 352c3.84 1.28 6.4 5.12 5.12 9.6-1.28 3.2-4.48 5.76-7.68 5.76zM630.4 403.2h-1.92L409.6 341.12c-3.84-1.28-6.4-5.12-5.12-9.6 1.28-3.84 5.12-6.4 9.6-5.12l218.88 61.44c3.84 1.28 6.4 5.12 5.12 9.6-1.28 3.84-4.48 5.76-7.68 5.76zM630.4 439.04h-1.92L409.6 376.96c-3.84-1.28-6.4-5.12-5.12-9.6 1.28-3.84 5.12-6.4 9.6-5.12l218.88 61.44c3.84 1.28 6.4 5.12 5.12 9.6-1.28 3.84-4.48 5.76-7.68 5.76zM704 586.88c-3.84 0-7.04-2.56-7.68-6.4-0.64-3.84 1.92-8.32 6.4-8.96l218.88-35.84c3.84-0.64 8.32 1.92 8.96 6.4 0.64 3.84-1.92 8.32-6.4 8.96l-218.88 35.84h-1.28zM704 551.04c-3.84 0-7.04-2.56-7.68-6.4-0.64-3.84 1.92-8.32 6.4-8.96l218.88-35.84c3.84-0.64 8.32 1.92 8.96 6.4 0.64 3.84-1.92 8.32-6.4 8.96l-218.88 35.84h-1.28zM704 622.72c-3.84 0-7.04-2.56-7.68-6.4-0.64-3.84 1.92-8.32 6.4-8.96l218.88-35.84c3.84-0.64 8.32 1.92 8.96 6.4 0.64 3.84-1.92 8.32-6.4 8.96l-218.88 35.84h-1.28zM704 658.56c-3.84 0-7.04-2.56-7.68-6.4-0.64-3.84 1.92-8.32 6.4-8.96L921.6 608c3.84-0.64 8.32 1.92 8.96 6.4 0.64 3.84-1.92 8.32-6.4 8.96l-218.88 35.84c-0.64-0.64-1.28-0.64-1.28-0.64zM704 695.04c-3.84 0-7.04-2.56-7.68-6.4-0.64-3.84 1.92-8.32 6.4-8.96l218.88-35.84c3.84-0.64 8.32 1.92 8.96 6.4 0.64 3.84-1.92 8.32-6.4 8.96l-218.88 35.84h-1.28z" fill="rgb(203,50,50)" p-id="1932"></path></svg>