<?xml version="1.0" standalone="no"?><!DOCTYPE svg PUBLIC "-//W3C//DTD SVG 1.1//EN" "http://www.w3.org/Graphics/SVG/1.1/DTD/svg11.dtd"><svg t="1621150155743" class="icon" viewBox="0 0 1024 1024" version="1.1" xmlns="http://www.w3.org/2000/svg" p-id="1346" width="30" height="30" xmlns:xlink="http://www.w3.org/1999/xlink"><defs><style type="text/css"></style></defs><path d="M727.095006 119.4236l-46.843043 0L680.251963 82.870446c0-47.867683-34.350371-82.230846-83.895086-82.230846L452.638701 0.6396c-49.539598 0-83.447365 34.363163-83.447365 82.230846l0 36.553154-56.214466 0 0 100.501666 414.119415 0L727.096285 119.4236z" p-id="1347"></path><path d="M830.620702 161.449174l-59.155348 0 0 87.72757L268.605242 249.176745l0-87.72757-59.155348 0c-52.344884 0-103.532092 38.84804-103.532092 90.123513l0 679.600849c0 51.275473 51.185929 92.826463 103.532092 92.826463L824.572642 1024c52.35256 0 94.788757-41.550991 94.788757-92.826463l0-679.600849C919.36012 200.297214 882.959191 161.449174 830.620702 161.449174zM312.84767 749.030736c0 14.490783-11.749457 26.24024-26.24024 26.24024l-21.550691 0c-14.490783 0-26.24024-11.749457-26.24024-26.24024l0-20.371268c0-14.490783 11.749457-26.241519 26.24024-26.241519l21.550691 0c14.490783 0 26.24024 11.750736 26.24024 26.241519L312.84767 749.030736zM312.84767 588.235233c0 14.490783-11.749457 26.238961-26.24024 26.238961l-21.550691 0c-14.490783 0-26.24024-11.748177-26.24024-26.238961L238.8165 567.875478c0-14.490783 11.749457-26.241519 26.24024-26.241519l21.550691 0c14.490783 0 26.24024 11.750736 26.24024 26.241519L312.84767 588.235233zM312.84767 427.449964c0 14.490783-11.749457 26.24024-26.24024 26.24024l-21.550691 0c-14.490783 0-26.24024-11.749457-26.24024-26.24024l0-20.359755c0-14.503575 11.749457-26.24024 26.24024-26.24024l21.550691 0c14.490783 0 26.24024 11.736665 26.24024 26.24024L312.84767 427.449964zM786.467818 749.030736c0 14.490783-11.762249 26.24024-26.24024 26.24024L398.403158 775.270976c-14.497179 0-26.24024-11.749457-26.24024-26.24024l0-20.371268c0-14.490783 11.743061-26.241519 26.24024-26.241519L760.228857 702.417949c14.476712 0 26.24024 11.750736 26.24024 26.241519L786.469097 749.030736zM786.467818 588.235233c0 14.490783-11.762249 26.238961-26.24024 26.238961L398.403158 614.474194c-14.497179 0-26.24024-11.748177-26.24024-26.238961L372.162918 567.875478c0-14.490783 11.743061-26.241519 26.24024-26.241519L760.228857 541.633959c14.476712 0 26.24024 11.750736 26.24024 26.241519L786.469097 588.235233zM786.467818 427.449964c0 14.490783-11.762249 26.24024-26.24024 26.24024L398.403158 453.690204c-14.497179 0-26.24024-11.749457-26.24024-26.24024l0-20.359755c0-14.503575 11.743061-26.24024 26.24024-26.24024L760.228857 380.849969c14.476712 0 26.24024 11.736665 26.24024 26.24024L786.469097 427.449964z" p-id="1348"></path></svg>