<svg t="1620799347107" class="icon" viewBox="0 0 1024 1024" version="1.1" xmlns="http://www.w3.org/2000/svg" p-id="11567" width="20" height="20"><path d="M848.52964877 671.19238563c-77.61250442-49.77323684-89.42310269-56.69087283-116.75620184-52.30407899-27.30497855 4.38679385-35.43179562 10.3483342-74.71609607 66.56115838-5.56785352 6.91763598-58.29373992 89.98551233-247.54452073-95.07531802-138.7464115-145.66404832-97.66240137-198.53053693-71.42600005-232.75315146 22.83382371-21.70900524 48.45157417-31.32620617 52.24783776-70.10433819 1.6309877-17.85650043-0.64677063-54.46935571-58.23749871-134.8376663C293.48776074 95.28510638 285.81087169 90.70146994 260.05251823 90.16718091c-25.78647326-0.53428903-66.84236362 12.45736972-109.05119221 47.10179169C109.24242383 165.81125202 96.36324751 199.30273493 91.89209265 238.50267355c-4.72423948 49.49203162-13.975875 216.86508436 194.39682688 450.63057349 208.37270187 233.76548914 477.73870943 284.01677298 571.57672576 217.70869922 40.4372395-29.24529126 73.47879519-94.20358338 74.91293949-135.99060534 5.06168509-28.82348466-6.63643158-49.91383906-84.27705661-99.65895529z" fill="rgb(163,163,163)
" p-id="11568"></path></svg>