<svg t="1620798939859" class="icon" viewBox="0 0 1024 1024" version="1.1" xmlns="http://www.w3.org/2000/svg" p-id="2343" width="20" height="20"><path d="M513.6 8C235.2 8 9.6 233.6 9.6 512s225.6 504 504 504 504-225.6 504-504S792 8 513.6 8z m232 696c-11.2-3.2-51.2-60.8-51.2-60.8-3.2 17.6 0 49.6-46.4 104l-3.2 3.2-6.4 6.4c11.2 3.2 46.4 17.6 49.6 28.8 6.4 14.4-3.2 17.6-22.4 17.6s-104 3.2-147.2-3.2h-17.6c-40 6.4-129.6 3.2-147.2 3.2s-28.8-3.2-20.8-17.6c0-3.2 0-3.2 3.2-8 11.2-8 35.2-17.6 46.4-22.4-22.4-17.6-35.2-43.2-43.2-57.6-3.2 0-3.2-3.2-3.2-3.2v-3.2c-6.4-17.6-11.2-46.4-11.2-46.4-3.2 3.2-43.2 68.8-54.4 57.6-11.2-11.2 0-68.8 11.2-104s22.4-64 22.4-64l25.6-65.6s-11.2-86.4 35.2-169.6c46.4-83.2 144-83.2 158.4-83.2s97.6 3.2 140.8 83.2c43.2 78.4 35.2 140.8 35.2 164.8l25.6 65.6c6.4 25.6 32 75.2 35.2 118.4 3.2 44.8 0 56-14.4 56z" fill="rgb(163,163,163)
" p-id="2344"></path></svg>
