<?xml version="1.0" standalone="no"?><!DOCTYPE svg PUBLIC "-//W3C//DTD SVG 1.1//EN" "http://www.w3.org/Graphics/SVG/1.1/DTD/svg11.dtd"><svg t="1620982440037" class="icon" viewBox="0 0 1024 1024" version="1.1" xmlns="http://www.w3.org/2000/svg" p-id="3032" data-spm-anchor-id="a313x.7781069.0.i11" xmlns:xlink="http://www.w3.org/1999/xlink" width="150" height="150"><defs><style type="text/css"></style></defs><path d="M512 128c-211.754667 0-384 172.245333-384 384 0 211.712 172.245333 384 384 384 211.712 0 384-172.288 384-384 0-211.754667-172.288-384-384-384m0 853.333333C253.184 981.333333 42.666667 770.816 42.666667 512S253.184 42.666667 512 42.666667s469.333333 210.517333 469.333333 469.333333-210.517333 469.333333-469.333333 469.333333" fill="#d81e06" fill-opacity="0.6" p-id="3033" data-spm-anchor-id="a313x.7781069.0.i6" class=""></path><path d="M509.781333 588.970667c6.826667 0 13.653333 1.621333 19.882667 4.906666l53.930667 28.373334-10.282667-60.117334a42.666667 42.666667 0 0 1 12.288-37.76l43.648-42.496-60.373333-8.832a42.666667 42.666667 0 0 1-32.128-23.296l-26.965334-54.656-26.965333 54.613334a42.666667 42.666667 0 0 1-32.128 23.381333l-60.330667 8.789333 43.648 42.496a42.666667 42.666667 0 0 1 12.288 37.76l-10.325333 60.117334 53.973333-28.373334c6.186667-3.285333 13.056-4.906667 19.84-4.906666m130.474667 153.941333a42.581333 42.581333 0 0 1-19.84-4.906667l-110.634667-58.154666-110.634666 58.154666a42.666667 42.666667 0 0 1-61.866667-44.970666l21.077333-123.178667-89.472-87.210667a42.666667 42.666667 0 0 1 23.637334-72.789333l123.733333-18.005333 55.253333-112.042667a42.666667 42.666667 0 0 1 76.544 0l55.296 112.042667 123.733334 18.005333a42.666667 42.666667 0 0 1 23.594666 72.789333l-89.472 87.210667 21.12 123.178667a42.752 42.752 0 0 1-42.069333 49.877333" fill="#e71647" p-id="3034" data-spm-anchor-id="a313x.7781069.0.i7" fill-opacity="0.6" class="selected"></path></svg>