<?xml version="1.0" standalone="no"?><!DOCTYPE svg PUBLIC "-//W3C//DTD SVG 1.1//EN" "http://www.w3.org/Graphics/SVG/1.1/DTD/svg11.dtd"><svg t="1620960912007" class="icon" viewBox="0 0 1024 1024" version="1.1" xmlns="http://www.w3.org/2000/svg" p-id="10912" xmlns:xlink="http://www.w3.org/1999/xlink" width="30" height="30"><defs><style type="text/css"></style></defs><path d="M389.952 490.88h186.364c-19.065-9.491-36.371-22.009-51.283-36.907-35.344-35.343-57.212-84.177-57.212-138.108s21.868-102.764 57.212-138.108 84.177-57.212 138.108-57.212c53.932 0 102.765 21.868 138.109 57.212 35.357 35.344 57.211 84.177 57.211 138.108S836.607 418.63 801.25 453.973c-14.912 14.898-32.218 27.417-51.284 36.907h34.88l82.107-56.057-9.645-14.124 31.711-21.643 71.504 104.778-31.698 21.643-11.068-16.193-77.699 53.029V857.58c0 25.008-20.461 45.469-45.455 45.469h-506.12c-25.007 0-45.468-20.461-45.468-45.469v-96.976H127.86v21.206H64.212V572.706h63.647v22.727h115.155v-59.1c0-14.7 7.068-27.81 17.968-36.131-17.531-7.295-33.302-17.953-46.51-31.161-26.035-26.037-42.144-61.999-42.144-101.737 0-39.723 16.109-75.7 42.144-101.737 26.037-26.035 62.014-42.144 101.737-42.144s75.7 16.109 101.75 42.144c26.022 26.036 42.131 62.014 42.131 101.737 0 39.738-16.109 75.7-42.131 101.737a144.976 144.976 0 0 1-28.007 21.839z m374.432-81.149l-74.982-43.301v84.98c27.6-5.309 52.269-18.827 71.35-37.921a180.822 180.822 0 0 0 3.632-3.758zM609.674 320.4l-78.46-45.299a138.17 138.17 0 0 0-6.125 40.764c0 17.01 3.084 33.302 8.716 48.354l75.869-43.819z m-53.254-92.119l79.84 46.102v-93.951c-27.346 5.407-51.791 18.869-70.745 37.823a139.356 139.356 0 0 0-9.095 10.026zM715.973 320.4l76.404 44.115c5.69-15.137 8.816-31.527 8.816-48.65 0-14.307-2.169-28.106-6.21-41.074l-79.01 45.609z m-79.713 46.03l-74.574 43.061a172.074 172.074 0 0 0 3.83 3.998c18.954 18.94 43.399 32.416 70.745 37.808V366.43h-0.001z m53.142-92.047l80.263-46.342a136.361 136.361 0 0 0-8.912-9.786c-19.081-19.094-43.75-32.626-71.35-37.95v94.078h-0.001zM390.796 436.442l-55.24-31.894v62.605c20.332-3.915 38.498-13.87 52.565-27.951 0.902-0.901 1.789-1.83 2.675-2.76z m-113.958-65.801l-57.816-33.357a102.07 102.07 0 0 0-4.493 30.021c0 12.532 2.254 24.53 6.408 35.625l55.901-32.289z m-39.245-67.842l58.817 33.935v-69.196c-20.149 3.971-38.146 13.899-52.099 27.868a101.082 101.082 0 0 0-6.718 7.393z m117.536 67.842l56.282 32.499c4.196-11.137 6.491-23.219 6.491-35.836 0-10.533-1.605-20.7-4.577-30.247l-58.196 33.584z m-58.719 33.922l-54.944 31.711c0.943 0.999 1.873 1.986 2.845 2.929 13.953 13.969 31.95 23.895 52.099 27.866v-62.506z m39.147-67.815l59.127-34.133a106.368 106.368 0 0 0-6.562-7.21c-14.067-14.082-32.232-24.037-52.565-27.966v69.309z" p-id="10913" fill="#d81e06"></path></svg>