<?xml version="1.0" standalone="no"?><!DOCTYPE svg PUBLIC "-//W3C//DTD SVG 1.1//EN" "http://www.w3.org/Graphics/SVG/1.1/DTD/svg11.dtd"><svg t="1620876846150" class="icon" viewBox="0 0 1024 1024" version="1.1" xmlns="http://www.w3.org/2000/svg" p-id="1252" width="30" height="30" xmlns:xlink="http://www.w3.org/1999/xlink"><defs><style type="text/css"></style></defs><path d="M514.615037 145.347428c258.827889-8.027557 444.313101 308.452785 277.193966 526.656373l52.908897 52.908896v10.095261c-26.880152 28.582967-53.760304 57.165934-80.640456 85.627272h-10.095261c-9.608742-17.757928-39.043117-50.233044-60.449935-55.463119-63.125787 59.720157-225.379736 74.802233-322.561824 35.272597-31.01556-15.933484-62.15275-31.866968-93.289939-47.922081l-2.554223 2.554223c1.094667 42.083858-12.771113 46.584155-32.718375 65.55838-59.233638 12.162965-102.777052-39.164746-58.017342-95.722533 16.784891-4.135408 33.569783-8.392446 50.354674-12.649483l-7.541038-7.541038c-11.554816-21.163559-32.475116-30.407412-37.82682-58.017342 21.163559-14.717187 32.718375-43.300154 58.017341-52.908896 29.434375 62.03112 283.518708 168.092172 362.942868 75.65364L391.039316 452.705547c-13.379261 11.798076-26.880152 23.474522-40.381043 35.272598-5.351704 9.487112-14.109039 16.541632-22.623114 22.623114h-7.541039c-31.01556-31.866968-62.15275-63.855565-93.289939-95.722532 58.017342-58.74712 115.913054-117.615869 173.930396-176.362989 45.976007 6.689631 69.572158 2.310963 110.926238-12.649483 15.933484 17.636299 31.988597 35.272598 47.922081 52.908896l-83.194679 83.194679C550.739043 436.042285 624.689868 509.993111 698.519064 583.822307c4.865186-3.52726 1.581185-0.243259 4.986816-4.986816 17.879558-17.27141 19.825632-42.448747 25.177337-73.099418 24.690818-139.995724-54.368452-246.543295-123.454092-304.925525-30.164153-18.487706-60.449935-36.975413-90.614088-55.46312z m0 0" fill="rgb(203,50,50)" p-id="1253"></path></svg>