<svg t="1620798895767" class="icon" viewBox="0 0 1024 1024" version="1.1" xmlns="http://www.w3.org/2000/svg" p-id="1530" width="20" height="20"><path d="M0 512C0 229.034667 229.034667 0 512 0 795.0336 0 1024 229.034667 1024 512c0 283.0336-228.9664 512-512 512A511.726933 511.726933 0 0 1 0 512z m360.8576 109.568c21.777067 4.642133 40.686933 8.669867 63.624533 8.669867 3.140267 0 6.280533-0.2048 9.557334-0.477867 3.4816-0.2048 7.099733-0.477867 10.922666-0.477867a172.578133 172.578133 0 0 1-6.485333-44.6464c0-94.071467 80.008533-170.3936 182.408533-170.3936 6.5536 0 13.994667 0 20.48 0.955734-18.568533-86.562133-111.684267-150.869333-216.8832-150.869334-118.237867 0-215.04 80.0768-215.04 182.4768 0 59.5968 31.675733 107.997867 85.674667 145.271467l-21.435733 64.170667 75.434666-37.205334 11.741867 2.525867z m394.103467 138.0352l-15.837867-53.930667c43.758933-32.631467 75.434667-75.434667 75.434667-122.88 0-85.674667-85.674667-155.511467-182.4768-155.511466-102.4 0-182.4768 69.8368-182.4768 155.4432 0 85.674667 80.0768 155.511467 182.4768 155.511466 21.435733 0 42.8032-5.597867 64.238933-11.195733l58.709333 32.5632zM329.1136 409.122133a33.450667 33.450667 0 1 1 47.377067-47.445333 33.450667 33.450667 0 0 1-47.377067 47.445333z m149.845333-0.955733a33.450667 33.450667 0 1 1 47.445334-47.377067 33.450667 33.450667 0 0 1-47.445334 47.377067zM559.786667 550.843733a23.210667 23.210667 0 1 1 32.904533-32.9728 23.210667 23.210667 0 0 1-32.904533 32.904534z m113.186133-5.7344a23.210667 23.210667 0 1 1 43.008-17.8176 23.210667 23.210667 0 0 1-43.008 17.8176z" fill="rgb(163,163,163)
" p-id="1531"></path></svg>
